<?xml version="1.0" encoding="UTF-8"?>
<svg version="1.1" xmlns="http://www.w3.org/2000/svg" width="500" height="500">
<path d="M0 0 C0.9635289 -0.00686325 1.9270578 -0.0137265 2.91978455 -0.02079773 C6.08998547 -0.03902888 9.25968978 -0.03523343 12.42993164 -0.02954102 C14.64278829 -0.03410453 16.85564352 -0.03941061 19.0684967 -0.04542542 C23.70099656 -0.05434927 28.33332396 -0.0519415 32.96582031 -0.04199219 C38.89179799 -0.03050281 44.81717977 -0.05071772 50.74307919 -0.07990932 C55.311404 -0.09828647 59.87958641 -0.09797581 64.44793892 -0.0922718 C66.63233844 -0.09211878 68.81674774 -0.0981474 71.00111198 -0.11056328 C74.05971155 -0.12549993 77.11721514 -0.11477601 80.17578125 -0.09765625 C81.51875275 -0.1121582 81.51875275 -0.1121582 82.88885498 -0.12695312 C91.01726767 -0.03205078 97.19761017 2.82126112 103.15258789 8.40405273 C103.15258789 9.06405273 103.15258789 9.72405273 103.15258789 10.40405273 C104.14258789 10.73405273 105.13258789 11.06405273 106.15258789 11.40405273 C106.15258789 12.06405273 106.15258789 12.72405273 106.15258789 13.40405273 C107.14258789 13.73405273 108.13258789 14.06405273 109.15258789 14.40405273 C110.50645725 16.05408101 111.83936932 17.72149143 113.15258789 19.40405273 C114.14258789 20.06405273 115.13258789 20.72405273 116.15258789 21.40405273 C116.15258789 22.06405273 116.15258789 22.72405273 116.15258789 23.40405273 C117.14258789 23.73405273 118.13258789 24.06405273 119.15258789 24.40405273 C119.15258789 25.06405273 119.15258789 25.72405273 119.15258789 26.40405273 C120.14258789 26.73405273 121.13258789 27.06405273 122.15258789 27.40405273 C122.15258789 28.06405273 122.15258789 28.72405273 122.15258789 29.40405273 C123.14258789 29.73405273 124.13258789 30.06405273 125.15258789 30.40405273 C125.15258789 31.06405273 125.15258789 31.72405273 125.15258789 32.40405273 C126.14258789 32.73405273 127.13258789 33.06405273 128.15258789 33.40405273 C128.48258789 34.06405273 128.81258789 34.72405273 129.15258789 35.40405273 C129.84519935 35.40551929 130.5378108 35.40698586 131.25141048 35.40849686 C148.12869795 35.44559935 165.00575264 35.50465949 181.88287258 35.58795547 C190.04463962 35.62771161 198.20631073 35.66012144 206.36816406 35.67504883 C213.48465605 35.68808318 220.60093663 35.7150931 227.71730953 35.7586658 C231.48305921 35.78124081 235.24854853 35.79696582 239.01437187 35.79593658 C242.56449654 35.7951876 246.11404657 35.81323253 249.66402245 35.84522057 C251.57666411 35.85769878 253.48940248 35.85067408 255.40206909 35.84291077 C264.59422234 35.95347447 272.45443409 37.70589893 279.15258789 44.40405273 C283.60309047 50.84596663 284.30132639 56.14370531 284.29302979 63.8036499 C284.29748647 65.08662866 284.29748647 65.08662866 284.30203319 66.39552617 C284.31071677 69.26654229 284.31222815 72.1375167 284.3137207 75.00854492 C284.31834912 77.0650949 284.32337381 79.12164402 284.32876587 81.17819214 C284.34188969 86.76922288 284.34833481 92.36024162 284.35277653 97.95128536 C284.35570732 101.44428354 284.35981214 104.93727844 284.3642807 108.43027496 C284.37795566 119.35887917 284.38762229 130.28747588 284.39148259 141.21608806 C284.3959633 153.83184827 284.41351186 166.44750014 284.44248319 179.06322742 C284.46409922 188.81452238 284.47418684 198.56578686 284.47552371 208.31710553 C284.4765718 214.14122255 284.4824806 219.96523773 284.50034332 225.78932953 C284.51682253 231.26896107 284.51898015 236.74841418 284.51020432 242.22806168 C284.50943386 244.23718112 284.51377774 246.24631015 284.52366257 248.25540543 C284.53638445 251.00265587 284.53050389 253.74927459 284.52008057 256.496521 C284.52813697 257.28758893 284.53619338 258.07865686 284.54449391 258.89369655 C284.47216966 267.06987397 282.04727116 273.50936947 276.15258789 279.40405273 C271.07937066 282.97240553 266.55441743 284.5249604 260.40637684 284.53827381 C259.44951255 284.54273166 258.49264825 284.5471895 257.50678807 284.55178243 C256.45845869 284.55159807 255.4101293 284.5514137 254.33003235 284.55122375 C253.21407139 284.55490044 252.09811044 284.55857713 250.94833249 284.56236523 C247.19520532 284.57341057 243.44210584 284.57724736 239.68896484 284.58105469 C237.00350276 284.58731865 234.31804363 284.59395257 231.63258362 284.60096741 C223.56443511 284.62071777 215.49628537 284.63079593 207.42811874 284.6396952 C203.62729691 284.64408018 199.82647647 284.64944643 196.02565575 284.65468407 C183.38873363 284.67169444 170.75181237 284.68618845 158.11488056 284.69343281 C154.83651542 284.69534265 151.55815028 284.69726299 148.27978516 284.69921875 C147.05757668 284.69994436 147.05757668 284.69994436 145.81067713 284.70068463 C132.61232109 284.70898438 119.41405569 284.7343212 106.21573923 284.76679943 C92.66106857 284.79988229 79.10644396 284.81788265 65.55173272 284.82107705 C57.94295802 284.82324094 50.33431554 284.83197195 42.72558022 284.85753822 C36.24551769 284.87926196 29.76561951 284.88728744 23.2855247 284.87757144 C19.98102507 284.87303157 16.67693463 284.87708364 13.37246704 284.89433289 C9.78471285 284.91201208 6.19781633 284.90496399 2.61006165 284.89179993 C1.57288586 284.90276917 0.53571008 284.91373842 -0.53289527 284.92504007 C-8.07712222 284.85829504 -14.35112049 283.39253572 -20.18725586 278.40405273 C-20.71448242 277.74405273 -21.24170898 277.08405273 -21.78491211 276.40405273 C-22.33018555 275.74405273 -22.87545898 275.08405273 -23.43725586 274.40405273 C-25.89691508 270.91556099 -27.09670341 268.3002026 -27.10468102 263.99863052 C-27.11112991 263.11778424 -27.1175788 262.23693795 -27.12422311 261.32939935 C-27.12112591 260.3659887 -27.11802871 259.40257805 -27.11483765 258.40997314 C-27.11936876 257.38314478 -27.12389987 256.35631641 -27.12856829 255.29837203 C-27.14126001 251.84689994 -27.13958883 248.39558468 -27.13793945 244.9440918 C-27.14392177 242.47375281 -27.15072663 240.00341569 -27.15829468 237.53308105 C-27.17415367 231.51238843 -27.18040446 225.4917578 -27.18151943 219.47105005 C-27.18246985 214.57608977 -27.1865798 209.68114241 -27.19292068 204.78618622 C-27.21053563 190.9052804 -27.21975935 177.02440551 -27.21825974 163.14348844 C-27.21817982 162.39512895 -27.21809991 161.64676947 -27.21801758 160.87573242 C-27.21793582 160.12645799 -27.21785406 159.37718356 -27.21776982 158.60520384 C-27.21695721 146.46667261 -27.23608783 134.32826557 -27.26429431 122.18977025 C-27.29303404 109.72329933 -27.30683396 97.25688894 -27.30510676 84.79038405 C-27.30444315 77.79253761 -27.30992227 70.79482128 -27.33146286 63.7970047 C-27.351596 57.21423873 -27.35098976 50.63170045 -27.3364296 44.04890442 C-27.33433663 41.63342132 -27.33907126 39.21792115 -27.35115051 36.80246735 C-27.36657947 33.50334355 -27.3573093 30.20517013 -27.34188843 26.90606689 C-27.35217555 25.95157913 -27.36246268 24.99709137 -27.37306154 24.01367974 C-27.29423813 16.37542839 -25.48163541 11.03827604 -20.03491211 5.59155273 C-13.23911664 0.92777153 -8.07678394 -0.04051853 0 0 Z " fill="#FDCD65" transform="translate(121.847412109375,74.595947265625)"/>
<path d="M0 0 C0.9635289 -0.00686325 1.9270578 -0.0137265 2.91978455 -0.02079773 C6.08998547 -0.03902888 9.25968978 -0.03523343 12.42993164 -0.02954102 C14.64278829 -0.03410453 16.85564352 -0.03941061 19.0684967 -0.04542542 C23.70099656 -0.05434927 28.33332396 -0.0519415 32.96582031 -0.04199219 C38.89179799 -0.03050281 44.81717977 -0.05071772 50.74307919 -0.07990932 C55.311404 -0.09828647 59.87958641 -0.09797581 64.44793892 -0.0922718 C66.63233844 -0.09211878 68.81674774 -0.0981474 71.00111198 -0.11056328 C74.05971155 -0.12549993 77.11721514 -0.11477601 80.17578125 -0.09765625 C81.51875275 -0.1121582 81.51875275 -0.1121582 82.88885498 -0.12695312 C91.01726767 -0.03205078 97.19761017 2.82126112 103.15258789 8.40405273 C103.15258789 9.06405273 103.15258789 9.72405273 103.15258789 10.40405273 C104.14258789 10.73405273 105.13258789 11.06405273 106.15258789 11.40405273 C106.15258789 12.06405273 106.15258789 12.72405273 106.15258789 13.40405273 C107.14258789 13.73405273 108.13258789 14.06405273 109.15258789 14.40405273 C110.50645725 16.05408101 111.83936932 17.72149143 113.15258789 19.40405273 C114.14258789 20.06405273 115.13258789 20.72405273 116.15258789 21.40405273 C116.15258789 22.06405273 116.15258789 22.72405273 116.15258789 23.40405273 C117.14258789 23.73405273 118.13258789 24.06405273 119.15258789 24.40405273 C119.15258789 25.06405273 119.15258789 25.72405273 119.15258789 26.40405273 C120.14258789 26.73405273 121.13258789 27.06405273 122.15258789 27.40405273 C122.15258789 28.06405273 122.15258789 28.72405273 122.15258789 29.40405273 C123.14258789 29.73405273 124.13258789 30.06405273 125.15258789 30.40405273 C125.15258789 31.06405273 125.15258789 31.72405273 125.15258789 32.40405273 C126.14258789 32.73405273 127.13258789 33.06405273 128.15258789 33.40405273 C128.48258789 34.06405273 128.81258789 34.72405273 129.15258789 35.40405273 C129.84519935 35.40551929 130.5378108 35.40698586 131.25141048 35.40849686 C148.12869795 35.44559935 165.00575264 35.50465949 181.88287258 35.58795547 C190.04463962 35.62771161 198.20631073 35.66012144 206.36816406 35.67504883 C213.48465605 35.68808318 220.60093663 35.7150931 227.71730953 35.7586658 C231.48305921 35.78124081 235.24854853 35.79696582 239.01437187 35.79593658 C242.56449654 35.7951876 246.11404657 35.81323253 249.66402245 35.84522057 C251.57666411 35.85769878 253.48940248 35.85067408 255.40206909 35.84291077 C264.59422234 35.95347447 272.45443409 37.70589893 279.15258789 44.40405273 C283.60309047 50.84596663 284.30132639 56.14370531 284.29302979 63.8036499 C284.29748647 65.08662866 284.29748647 65.08662866 284.30203319 66.39552617 C284.31071677 69.26654229 284.31222815 72.1375167 284.3137207 75.00854492 C284.31834912 77.0650949 284.32337381 79.12164402 284.32876587 81.17819214 C284.34188969 86.76922288 284.34833481 92.36024162 284.35277653 97.95128536 C284.35570732 101.44428354 284.35981214 104.93727844 284.3642807 108.43027496 C284.37795566 119.35887917 284.38762229 130.28747588 284.39148259 141.21608806 C284.3959633 153.83184827 284.41351186 166.44750014 284.44248319 179.06322742 C284.46409922 188.81452238 284.47418684 198.56578686 284.47552371 208.31710553 C284.4765718 214.14122255 284.4824806 219.96523773 284.50034332 225.78932953 C284.51682253 231.26896107 284.51898015 236.74841418 284.51020432 242.22806168 C284.50943386 244.23718112 284.51377774 246.24631015 284.52366257 248.25540543 C284.53638445 251.00265587 284.53050389 253.74927459 284.52008057 256.496521 C284.52813697 257.28758893 284.53619338 258.07865686 284.54449391 258.89369655 C284.47216966 267.06987397 282.04727116 273.50936947 276.15258789 279.40405273 C271.07937066 282.97240553 266.55441743 284.5249604 260.40637684 284.53827381 C259.44951255 284.54273166 258.49264825 284.5471895 257.50678807 284.55178243 C256.45845869 284.55159807 255.4101293 284.5514137 254.33003235 284.55122375 C253.21407139 284.55490044 252.09811044 284.55857713 250.94833249 284.56236523 C247.19520532 284.57341057 243.44210584 284.57724736 239.68896484 284.58105469 C237.00350276 284.58731865 234.31804363 284.59395257 231.63258362 284.60096741 C223.56443511 284.62071777 215.49628537 284.63079593 207.42811874 284.6396952 C203.62729691 284.64408018 199.82647647 284.64944643 196.02565575 284.65468407 C183.38873363 284.67169444 170.75181237 284.68618845 158.11488056 284.69343281 C154.83651542 284.69534265 151.55815028 284.69726299 148.27978516 284.69921875 C147.05757668 284.69994436 147.05757668 284.69994436 145.81067713 284.70068463 C132.61232109 284.70898438 119.41405569 284.7343212 106.21573923 284.76679943 C92.66106857 284.79988229 79.10644396 284.81788265 65.55173272 284.82107705 C57.94295802 284.82324094 50.33431554 284.83197195 42.72558022 284.85753822 C36.24551769 284.87926196 29.76561951 284.88728744 23.2855247 284.87757144 C19.98102507 284.87303157 16.67693463 284.87708364 13.37246704 284.89433289 C9.78471285 284.91201208 6.19781633 284.90496399 2.61006165 284.89179993 C1.57288586 284.90276917 0.53571008 284.91373842 -0.53289527 284.92504007 C-8.07712222 284.85829504 -14.35112049 283.39253572 -20.18725586 278.40405273 C-20.71448242 277.74405273 -21.24170898 277.08405273 -21.78491211 276.40405273 C-22.33018555 275.74405273 -22.87545898 275.08405273 -23.43725586 274.40405273 C-25.89691508 270.91556099 -27.09670341 268.3002026 -27.10468102 263.99863052 C-27.11112991 263.11778424 -27.1175788 262.23693795 -27.12422311 261.32939935 C-27.12112591 260.3659887 -27.11802871 259.40257805 -27.11483765 258.40997314 C-27.11936876 257.38314478 -27.12389987 256.35631641 -27.12856829 255.29837203 C-27.14126001 251.84689994 -27.13958883 248.39558468 -27.13793945 244.9440918 C-27.14392177 242.47375281 -27.15072663 240.00341569 -27.15829468 237.53308105 C-27.17415367 231.51238843 -27.18040446 225.4917578 -27.18151943 219.47105005 C-27.18246985 214.57608977 -27.1865798 209.68114241 -27.19292068 204.78618622 C-27.21053563 190.9052804 -27.21975935 177.02440551 -27.21825974 163.14348844 C-27.21817982 162.39512895 -27.21809991 161.64676947 -27.21801758 160.87573242 C-27.21793582 160.12645799 -27.21785406 159.37718356 -27.21776982 158.60520384 C-27.21695721 146.46667261 -27.23608783 134.32826557 -27.26429431 122.18977025 C-27.29303404 109.72329933 -27.30683396 97.25688894 -27.30510676 84.79038405 C-27.30444315 77.79253761 -27.30992227 70.79482128 -27.33146286 63.7970047 C-27.351596 57.21423873 -27.35098976 50.63170045 -27.3364296 44.04890442 C-27.33433663 41.63342132 -27.33907126 39.21792115 -27.35115051 36.80246735 C-27.36657947 33.50334355 -27.3573093 30.20517013 -27.34188843 26.90606689 C-27.35217555 25.95157913 -27.36246268 24.99709137 -27.37306154 24.01367974 C-27.29423813 16.37542839 -25.48163541 11.03827604 -20.03491211 5.59155273 C-13.23911664 0.92777153 -8.07678394 -0.04051853 0 0 Z M160.9368906 87.94896793 C160.1241223 89.12972391 159.33157531 90.32458124 158.55669212 91.53053856 C151.14935289 102.97084028 141.18720486 114.63016549 127.63162994 118.37735748 C117.82532938 120.18232063 107.95030793 120.44288029 98.00024414 120.43920898 C97.24565525 120.43909175 96.49106635 120.43897452 95.71361113 120.43885374 C86.28940788 120.41253084 76.87972431 120.12446335 67.46397722 119.74301279 C56.98316698 119.32301305 46.49730008 119.13336294 36.01003933 118.95201015 C34.45415643 118.9248551 32.89827397 118.89767464 31.34239197 118.87046814 C30.58263437 118.85753249 29.82287678 118.84459684 29.04009622 118.8312692 C24.55988064 118.74967011 20.08431202 118.62056813 15.60671532 118.44748032 C13.50119057 118.36863006 11.39569091 118.30278308 9.2895813 118.24172974 C6.73377178 118.16514977 4.1784963 118.06572084 1.62471008 117.93843079 C-5.11832844 117.77137649 -9.18538925 118.32622449 -14.36531925 122.8084631 C-17.55764146 126.24524927 -18.0987394 128.36282268 -18.10810852 132.92549133 C-18.11519333 134.07368347 -18.12227814 135.22187561 -18.12957764 136.40486145 C-18.12710022 137.66570053 -18.1246228 138.92653961 -18.12207031 140.22558594 C-18.12641729 141.56603276 -18.13160039 142.90647709 -18.13755798 144.24691772 C-18.15096359 147.88961669 -18.15152474 151.53221198 -18.14899468 155.17493081 C-18.14792563 158.21656607 -18.15280686 161.2581803 -18.1576001 164.29981107 C-18.16870153 171.47772204 -18.16912969 178.65558069 -18.16308594 185.83349609 C-18.15705002 193.23447065 -18.16934589 200.63525492 -18.19065601 208.03619701 C-18.20828324 214.39214963 -18.21427144 220.74804175 -18.21101826 227.10401791 C-18.20920642 230.89924012 -18.21183128 234.6943267 -18.2257328 238.48952675 C-18.2383242 242.06088095 -18.23635487 245.63193929 -18.22332191 249.20328903 C-18.21983476 251.13442 -18.23112561 253.06556004 -18.2428894 254.99665833 C-18.34565823 263.2055198 -18.34565823 263.2055198 -14.84741211 270.40405273 C-8.91313789 275.71759281 -4.48678562 276.12125863 3.31813049 276.03224182 C4.43468787 276.03933621 5.55124524 276.0464306 6.70163769 276.05373996 C10.43897562 276.07132671 14.17527459 276.0532102 17.91259766 276.03515625 C20.59354537 276.04029477 23.27442346 276.04738684 25.95535278 276.05683899 C32.47837806 276.07520098 39.00110344 276.06671336 45.52411932 276.04875077 C50.82569617 276.03471612 56.12719169 276.03083381 61.42878532 276.03419304 C62.18377818 276.03467048 62.93877103 276.03514792 63.71664245 276.03563983 C65.25045834 276.03666618 66.78427422 276.03772154 68.31809007 276.0388056 C81.87520594 276.04736959 95.43217715 276.03070685 108.98925781 276.00097656 C122.14166336 275.97213414 135.29386056 275.96505869 148.44628906 275.98046875 C162.77314231 275.99723187 177.09989668 276.00126445 191.42675251 275.98375839 C192.9545704 275.98191402 194.48238831 275.9800793 196.01020622 275.97825432 C196.76189914 275.97734223 197.51359206 275.97643014 198.28806354 275.97549041 C203.58328515 275.96988613 208.87845846 275.97319112 214.17367744 275.97979927 C220.62670875 275.98753272 227.07953501 275.98077945 233.53252501 275.95562423 C236.82449618 275.94312982 240.11608287 275.93913061 243.40807533 275.94816589 C246.97706377 275.95683379 250.54511867 275.94094784 254.11402893 275.91871643 C255.67399443 275.93107758 255.67399443 275.93107758 257.26547438 275.94368845 C263.060648 275.87689989 266.62452985 275.40208972 271.15258789 271.40405273 C276.53256766 264.01355398 275.71780184 255.65892339 275.67016602 246.89379883 C275.67559174 245.21764011 275.68271693 243.54148616 275.69140625 241.86534119 C275.70958622 237.33031296 275.70259494 232.79565015 275.68988991 228.26061583 C275.67973792 223.50817627 275.68916137 218.75576725 275.69543457 214.00332642 C275.70270316 206.02584229 275.6931425 198.04850651 275.67407227 190.07104492 C275.65229011 180.85276844 275.65936779 171.63484566 275.68137789 162.4165777 C275.69953656 154.49363981 275.70208837 146.57080832 275.69162321 138.64785635 C275.68539277 133.91931651 275.68454059 129.1909429 275.69776917 124.46241379 C275.70933439 120.0184404 275.70128981 115.57492282 275.67819214 111.13099861 C275.67290926 109.50161177 275.67441165 107.87218649 275.6832428 106.24281502 C275.69419888 104.01588389 275.68043647 101.79040695 275.66052246 99.56356812 C275.65901436 98.31847662 275.65750626 97.07338512 275.65595245 95.79056358 C274.93411352 90.93421185 272.74454773 87.80304774 269.09008789 84.59155273 C264.64664763 81.86815386 260.12637392 82.24246987 255.09472656 82.22705078 C254.16758347 82.22047958 253.24044037 82.21390839 252.28520203 82.20713806 C249.21365276 82.18740961 246.14215235 82.17574401 243.07055664 82.16577148 C242.02167078 82.16169596 240.97278492 82.15762043 239.89211464 82.1534214 C234.34148989 82.13256352 228.79088984 82.11826004 223.24023438 82.10888672 C217.50680696 82.09781735 211.77376712 82.06341031 206.0404768 82.02371502 C201.63181332 81.99757494 197.2232426 81.98919723 192.81450844 81.98560524 C190.70100598 81.98073328 188.58750784 81.96910201 186.47408104 81.95056725 C183.51528526 81.92622964 180.55749796 81.92713105 177.59863281 81.93408203 C176.7272467 81.92127197 175.8558606 81.90846191 174.95806885 81.89526367 C168.97656077 81.94643525 164.84745295 82.97940251 160.9368906 87.94896793 Z " fill="#060504" transform="translate(121.847412109375,74.595947265625)"/>
<path d="M0 0 C0.79617233 -0.00708481 1.59234467 -0.01416962 2.41264343 -0.02146912 C3.70941261 -0.01775299 3.70941261 -0.01775299 5.03237915 -0.01396179 C5.9499147 -0.01907272 6.86745026 -0.02418365 7.81278992 -0.02944946 C10.84650187 -0.04335155 13.87998678 -0.04238808 16.91372681 -0.04008484 C19.02356043 -0.0439717 21.13339327 -0.04830635 23.2432251 -0.05307007 C27.66662125 -0.06053381 32.0899376 -0.06024006 36.51333618 -0.05497742 C42.1783059 -0.04918553 47.84294838 -0.06610639 53.507864 -0.08932209 C57.86592515 -0.10406414 62.22390762 -0.10493042 66.58198929 -0.10181236 C68.67035189 -0.10232543 70.75871892 -0.10756047 72.84705734 -0.11762428 C75.76972365 -0.12997899 78.69175405 -0.12320238 81.6144104 -0.11161804 C82.47487473 -0.11926178 83.33533905 -0.12690552 84.22187805 -0.13478088 C89.18968517 -0.09132213 92.77027384 0.30483744 96.95278931 3.26069641 C98.38206439 4.95983916 99.60795576 6.71886567 100.8328476 8.5708046 C108.76702839 20.55617288 119.32003635 33.17092447 133.56561279 37.31054688 C143.50514414 39.25221528 153.51986584 39.57514386 163.62466431 39.59663391 C164.76747014 39.59906459 164.76747014 39.59906459 165.93336296 39.60154438 C175.43079473 39.59395222 184.91193195 39.30299961 194.40046072 38.91333413 C203.38409638 38.5503169 212.36970143 38.39953138 221.35903931 38.25288391 C224.51997444 38.20065868 227.68088363 38.14721329 230.84176636 38.09190369 C231.60673534 38.07857675 232.37170432 38.06524982 233.15985417 38.05151904 C238.40450363 37.95414749 243.64523261 37.79710749 248.88754272 37.61479187 C250.28428911 37.57004824 251.68104795 37.52569146 253.07781982 37.48175049 C255.65656384 37.39767369 258.23495 37.30137436 260.81268311 37.19055176 C262.51843002 37.13782356 262.51843002 37.13782356 264.25863647 37.08403015 C265.24357464 37.0457781 266.2285128 37.00752605 267.24329758 36.96811485 C270.52683525 37.32268415 272.30321699 38.31874488 274.95278931 40.26069641 C279.42540606 46.11008806 279.45843515 51.00569892 279.20278931 58.19819641 C279.18474243 59.16821594 279.16669556 60.13823547 279.14810181 61.13764954 C279.10129598 63.51304535 279.03575316 65.88633485 278.95278931 68.26069641 C277.47244166 67.7851908 275.9935391 67.30518425 274.51528931 66.82319641 C273.69157837 66.55636047 272.86786743 66.28952454 272.01919556 66.01460266 C269.95278931 65.26069641 269.95278931 65.26069641 268.95278931 64.26069641 C268.71577692 61.40191732 268.53059749 58.56186344 268.39028931 55.69819641 C268.34710571 54.89188782 268.30392212 54.08557922 268.25942993 53.25483704 C268.15303669 51.25700836 268.05238043 49.25887572 267.95278931 47.26069641 C233.44601407 47.2378311 198.93924056 47.22019873 164.43245939 47.20963108 C160.36298276 47.2083803 156.29350615 47.20708599 152.22402954 47.20576477 C151.0087381 47.2053713 151.0087381 47.2053713 149.76889532 47.20496989 C136.63282008 47.20061298 123.49674919 47.19272532 110.36067653 47.18354362 C96.89205418 47.17420765 83.42343411 47.16864092 69.95480865 47.16660792 C61.6371475 47.16523257 53.31949866 47.16088135 45.0018413 47.15277994 C39.30598524 47.14751319 33.61013558 47.14589195 27.91427726 47.14719503 C24.62308563 47.14783853 21.33192028 47.14628121 18.04073143 47.14149094 C14.48088729 47.13656106 10.92109706 47.1376955 7.36125183 47.14044189 C6.30971768 47.13752905 5.25818354 47.13461621 4.17478472 47.1316151 C3.22879347 47.13360615 2.28280222 47.1355972 1.30814457 47.13764858 C0.48529061 47.13726886 -0.33756334 47.13688914 -1.18535227 47.13649791 C-3.06248052 47.0564747 -3.06248052 47.0564747 -4.04721069 48.26069641 C-4.17011788 49.91714007 -4.22504977 51.57868634 -4.25253296 53.23945618 C-4.27247818 54.3004805 -4.2924234 55.36150482 -4.31297302 56.4546814 C-4.32968552 57.60883041 -4.34639801 58.76297943 -4.36361694 59.95210266 C-4.38439804 61.12707809 -4.40517914 62.30205353 -4.42658997 63.51263428 C-4.49221194 67.28275965 -4.551029 71.05295723 -4.60971069 74.82319641 C-4.65288389 77.37203214 -4.69649777 79.92086045 -4.74057007 82.46968079 C-4.84790619 88.73327781 -4.9491376 94.99694778 -5.04721069 101.26069641 C-8.01721069 102.58069641 -10.98721069 103.90069641 -14.04721069 105.26069641 C-14.18633167 92.8648911 -14.2928937 80.46927201 -14.35808372 68.07284451 C-14.3893745 62.31641469 -14.43180742 56.56051964 -14.49984741 50.80439758 C-14.56511845 45.24764831 -14.60093369 39.69141286 -14.61647415 34.13430977 C-14.62754645 32.01599604 -14.64916858 29.89770993 -14.68159103 27.7796154 C-14.72525661 24.8084206 -14.73114048 21.83933903 -14.72836304 18.86787415 C-14.74993469 17.99537018 -14.77150635 17.12286621 -14.79373169 16.22392273 C-14.737607 10.661925 -13.53209059 7.72288735 -9.72638893 3.64950657 C-6.61671136 1.07756292 -4.02845801 0.01200132 0 0 Z " fill="#FCBC2D" transform="translate(118.04721069335938,83.73930358886719)"/>
<path d="M0 0 C84.48 0 168.96 0 256 0 C256 2.97 256 5.94 256 9 C254.83710009 9.00331015 253.67420017 9.00662029 252.47606087 9.01003075 C224.89364531 9.08898656 197.31127843 9.17818282 169.72893757 9.28005161 C166.33670736 9.29257103 162.94447683 9.30500372 159.55224609 9.31738281 C158.87689178 9.31984881 158.20153746 9.3223148 157.50571786 9.32485552 C146.55925323 9.36461853 135.61277823 9.39735016 124.66628338 9.42749982 C113.44069992 9.45857405 102.21516077 9.49731516 90.98962486 9.54279006 C84.68166475 9.56809896 78.37373608 9.58986715 72.06573868 9.60334396 C66.13475077 9.6161246 60.20387046 9.63813536 54.27294159 9.66738319 C52.09039087 9.67649038 49.90782281 9.68215646 47.72525406 9.68421364 C44.75682652 9.6875141 41.78870818 9.70293082 38.82034302 9.7215271 C37.94681439 9.71959237 37.07328575 9.71765763 36.17328656 9.71566427 C31.60956642 9.55356144 31.60956642 9.55356144 28 12 C28.40528901 14.78237655 28.40528901 14.78237655 30 17 C31.59381078 17.10812513 33.19237647 17.14684297 34.78981018 17.15821838 C35.82612579 17.1680072 36.86244141 17.17779602 37.93016052 17.18788147 C39.07670609 17.19363693 40.22325165 17.1993924 41.40454102 17.20532227 C42.60437622 17.21522186 43.80421143 17.22512146 45.04040527 17.23532104 C48.33982238 17.26157133 51.63921448 17.28340742 54.9386723 17.30332303 C58.3833717 17.32514514 61.82802642 17.35255223 65.27268982 17.37937927 C71.79979489 17.42935738 78.32692468 17.47427714 84.85407823 17.51740164 C92.28325189 17.56673038 99.71238073 17.62166463 107.14151108 17.67708123 C122.42763268 17.7909798 137.71379543 17.8978016 153 18 C151.77848236 19.41336639 151.77848236 19.41336639 150.5322876 20.85528564 C148.67112992 23.00888178 146.86134352 25.17753067 145.10900116 27.42116547 C138.39808993 35.93585205 131.42845144 44.67571694 120.30578613 46.76037598 C113.31078535 47.47943643 106.34025172 47.32624896 99.3271265 47.02787876 C95.82200429 46.90077671 92.31633594 46.89094882 88.80926514 46.86737061 C82.20159457 46.80578568 75.60073226 46.64254226 68.99602962 46.44038081 C61.46342776 46.21494405 53.93045793 46.10641133 46.39530993 46.00647211 C30.92561858 45.79873903 15.46528011 45.43280944 0 45 C0 36.09 0 27.18 0 18 C7.9375 17.5625 7.9375 17.5625 10.44116211 17.43188477 C14.02044292 17.53795177 14.02044292 17.53795177 17 16 C17.16666667 13.5 17.16666667 13.5 17 11 C14.94077598 8.94077598 10.78291876 9.58572421 7.9375 9.4375 C7.17888672 9.39431641 6.42027344 9.35113281 5.63867188 9.30664062 C3.75934562 9.20026367 1.87969756 9.09960066 0 9 C0 6.03 0 3.06 0 0 Z " fill="#FCFCFC" transform="translate(122,139)"/>
<path d="M0 0 C7.77001953 0.83251953 7.77001953 0.83251953 9.83984375 2.33984375 C13.27828194 7.3445456 14.12637046 9.60024593 14.14717102 15.67849731 C14.15084771 16.37284909 14.1545244 17.06720087 14.1583125 17.78259361 C14.16936918 20.12085755 14.17319657 22.45907708 14.17700195 24.79736328 C14.18326525 26.46938723 14.18991193 28.14140977 14.19691467 29.81343079 C14.21434002 34.36535238 14.22488122 38.91726345 14.2331202 43.46921015 C14.23826849 46.31326512 14.24434439 49.15731681 14.25063133 52.00136948 C14.26969011 60.89995338 14.2839182 69.79852897 14.2922433 78.69712937 C14.30201074 88.96807873 14.32831449 99.2388123 14.36874419 109.50968564 C14.39891822 117.4477914 14.41371351 125.38583538 14.41702431 133.32399738 C14.41937388 138.06502464 14.42832169 142.80582154 14.45348549 147.54678726 C14.4767929 152.01032981 14.48098875 156.47349081 14.47072411 160.93707848 C14.47022924 162.57209099 14.47653525 164.20712244 14.49028015 165.84207726 C14.61589647 181.674976 14.61589647 181.674976 10 188 C4.59694766 192.78005751 -0.23295129 192.55744143 -7.08566284 192.48101807 C-8.76556736 192.48614462 -8.76556736 192.48614462 -10.47940934 192.49137473 C-14.23376597 192.4979656 -17.9874084 192.47595634 -21.74169922 192.45410156 C-24.43222159 192.45297335 -27.12270015 192.45343027 -29.81321716 192.45587158 C-35.60650913 192.45796741 -41.39962069 192.44543405 -47.19286728 192.42292023 C-55.56886309 192.39039049 -63.94477179 192.37999223 -72.32082392 192.37496826 C-85.91087215 192.36621713 -99.50082426 192.3396065 -113.09082031 192.30175781 C-126.29101074 192.26503301 -139.49117504 192.23672355 -152.69140625 192.21972656 C-153.5052797 192.21867567 -154.31915315 192.21762477 -155.15768944 192.21654204 C-159.24071692 192.21132183 -163.32374459 192.20626701 -167.40677238 192.20129442 C-201.27125129 192.15983805 -235.13561386 192.08939459 -269 192 C-269 191.67 -269 191.34 -269 191 C-181.88 191 -94.76 191 -5 191 C-4.34 189.35 -3.68 187.7 -3 186 C-2.6344935 185.22600011 -2.26898701 184.45200022 -1.89240456 183.65454578 C-0.75049008 180.25780803 -0.71159205 177.06893236 -0.7215271 173.52726746 C-0.7128385 172.4121748 -0.7128385 172.4121748 -0.70397437 171.27455503 C-0.68699698 168.78870535 -0.68409983 166.3030416 -0.68115234 163.81713867 C-0.6718526 162.03316799 -0.66168386 160.24920166 -0.65071106 158.46524048 C-0.62340218 153.62479107 -0.60825899 148.78437078 -0.59528303 143.94386458 C-0.57965642 138.88428007 -0.55286468 133.82475505 -0.5272522 128.76521301 C-0.48045613 119.18538274 -0.443716 109.60554129 -0.41057932 100.02565509 C-0.37236381 89.11881751 -0.32295214 78.21203967 -0.27259517 67.30525243 C-0.16926299 44.87021256 -0.08000673 22.43513432 0 0 Z " fill="#EBB12F" transform="translate(383,158)"/>
<path d="M0 0 C84.48 0 168.96 0 256 0 C256 2.97 256 5.94 256 9 C254.25703282 9.00358253 254.25703282 9.00358253 252.47885418 9.00723743 C224.91251453 9.06456393 197.34625051 9.13727063 169.7800029 9.22898628 C166.38906155 9.24025481 162.99811978 9.2513932 159.60717773 9.26245117 C158.59453972 9.2657567 158.59453972 9.2657567 157.56144438 9.269129 C146.62212032 9.30452739 135.68279633 9.32937715 124.74343618 9.35034702 C113.52348405 9.37208888 102.30360628 9.40534746 91.08371335 9.44870156 C84.77961914 9.47269373 78.4756076 9.49138316 72.17146873 9.49761391 C66.24289896 9.50363771 60.31454087 9.52353907 54.38604927 9.55427551 C52.20553428 9.5630993 50.02499167 9.56676942 47.84445953 9.56500816 C44.87625763 9.56336707 41.90871005 9.57995472 38.94059753 9.60127258 C38.06998174 9.59642501 37.19936595 9.59157743 36.30236787 9.58658296 C31.97049736 9.45297879 31.97049736 9.45297879 28.38401872 11.50573701 C27.92729254 11.99884379 27.47056636 12.49195058 27 13 C24.27492202 13.39078556 21.76878044 13.13616953 19 13 C18.67 13.66 18.34 14.32 18 15 C17.34 13.35 16.68 11.7 16 10 C10.72 9.67 5.44 9.34 0 9 C0 6.03 0 3.06 0 0 Z " fill="#BAEBF5" transform="translate(122,139)"/>
<path d="M0 0 C5.28 0 10.56 0 16 0 C18.48228318 6.9871546 20.96058198 13.97569139 23.43187714 20.96674061 C24.57953625 24.21284767 25.72893607 27.45831625 26.88232422 30.70239258 C28.20799277 34.43127504 29.52607282 38.16281698 30.84375 41.89453125 C31.46715271 43.64308159 31.46715271 43.64308159 32.10314941 45.42695618 C32.4835437 46.50785019 32.86393799 47.5887442 33.25585938 48.70239258 C33.59339233 49.65503494 33.93092529 50.60767731 34.27868652 51.58918762 C35 54 35 54 35 57 C30.71 57 26.42 57 22 57 C20.68 52.71 19.36 48.42 18 44 C11.07 43.67 4.14 43.34 -3 43 C-3.66 46.3 -4.32 49.6 -5 53 C-5.33 54.32 -5.66 55.64 -6 57 C-10.62 57 -15.24 57 -20 57 C-13.7496875 37.83237499 -7.03343266 18.89166865 0 0 Z " fill="#090502" transform="translate(304,234)"/>
<path d="M0 0 C1.20269531 -0.02578125 2.40539062 -0.0515625 3.64453125 -0.078125 C8.18554204 0.34243168 11.44704497 1.66250658 14.83203125 4.75 C20.5775286 12.12883272 19.1875 14.21786703 19.1875 25.25 C10.2775 25.25 1.3675 25.25 -7.8125 25.25 C-6.52172472 31.78571105 -6.52172472 31.78571105 -4.015625 34.16796875 C2.40995775 37.32379574 10.64680828 35.22454844 17.1875 33.25 C17.1875 36.22 17.1875 39.19 17.1875 42.25 C8.64112277 45.66855089 0.05234907 47.12543499 -8.75 43.625 C-13.60840498 41.1341873 -16.42947861 37.97680812 -18.9140625 33.078125 C-21.03914332 26.38874015 -21.16966976 17.1981302 -18.8671875 10.5 C-14.28178107 2.88649499 -8.74352735 0.11173837 0 0 Z " fill="#070302" transform="translate(233.8125,246.75)"/>
<path d="M0 0 C10.89 0 21.78 0 33 0 C33 3.3 33 6.6 33 10 C26.07 10 19.14 10 12 10 C12 14.95 12 19.9 12 25 C18.27 25 24.54 25 31 25 C31 27.97 31 30.94 31 34 C24.73 34 18.46 34 12 34 C12 41.59 12 49.18 12 57 C8.04 57 4.08 57 0 57 C0 38.19 0 19.38 0 0 Z " fill="#070401" transform="translate(124,234)"/>
<path d="M0 0 C8.58 0 17.16 0 26 0 C26 2.31 26 4.62 26 7 C24.02 7.99 22.04 8.98 20 10 C20 22.21 20 34.42 20 47 C21.98 47.99 23.96 48.98 26 50 C26 52.31 26 54.62 26 57 C17.42 57 8.84 57 0 57 C0 54.69 0 52.38 0 50 C1.98 49.01 3.96 48.02 6 47 C6 34.79 6 22.58 6 10 C4.02 9.01 2.04 8.02 0 7 C0 4.69 0 2.38 0 0 Z " fill="#040101" transform="translate(342,234)"/>
<path d="M0 0 C3.96 0 7.92 0 12 0 C12 20.13 12 40.26 12 61 C8.04 61 4.08 61 0 61 C0 40.87 0 20.74 0 0 Z " fill="#000000" transform="translate(192,230)"/>
<path d="M0 0 C17.90658811 -0.07007936 35.81314063 -0.1229829 53.71983624 -0.15543652 C62.03421805 -0.17090578 70.34851467 -0.19199641 78.6628418 -0.22631836 C85.90956501 -0.25621893 93.15622652 -0.27557457 100.40300971 -0.28226548 C104.2401883 -0.28617664 108.07719035 -0.29536953 111.91431236 -0.31719017 C115.52662808 -0.3375658 119.13869467 -0.34383168 122.75106239 -0.33932304 C124.70748701 -0.34054075 126.66388455 -0.35667728 128.62023926 -0.3732605 C129.78826584 -0.36913651 130.95629242 -0.36501251 132.15971375 -0.36076355 C133.67928948 -0.36491162 133.67928948 -0.36491162 135.22956371 -0.36914349 C138.50654507 0.06749399 140.34317301 1.05834218 143 3 C147.47261676 8.84939164 147.50564584 13.7450025 147.25 20.9375 C147.23195313 21.90751953 147.21390625 22.87753906 147.1953125 23.87695312 C147.14850667 26.25234894 147.08296385 28.62563844 147 31 C145.51965236 30.52449439 144.04074979 30.04448784 142.5625 29.5625 C141.73878906 29.29566406 140.91507812 29.02882812 140.06640625 28.75390625 C138 28 138 28 137 27 C136.67 21.39 136.34 15.78 136 10 C2.35 9.505 2.35 9.505 -134 9 C-134 8.67 -134 8.34 -134 8 C-46.55 7.67 40.9 7.34 131 7 C131 6.34 131 5.68 131 5 C130.34 5 129.68 5 129 5 C129 3.68 129 2.36 129 1 C86.43 1 43.86 1 0 1 C0 0.67 0 0.34 0 0 Z " fill="#D19731" transform="translate(250,121)"/>
<path d="M0 0 C3.96 0 7.92 0 12 0 C12 14.52 12 29.04 12 44 C8.04 44 4.08 44 0 44 C0 29.48 0 14.96 0 0 Z " fill="#020001" transform="translate(167,247)"/>
<path d="M0 0 C0.82247424 0.00075944 1.64494847 0.00151888 2.49234617 0.00230134 C3.91431961 -0.00367181 3.91431961 -0.00367181 5.3650198 -0.00976562 C6.93795176 -0.0010271 6.93795176 -0.0010271 8.54266012 0.00788796 C9.65101166 0.00617911 10.7593632 0.00447026 11.90130115 0.00270963 C15.64024748 -0.0006023 19.379017 0.01044643 23.11794698 0.02134621 C25.78816291 0.02190996 28.45836778 0.02168269 31.12858236 0.0204612 C36.89023985 0.01941094 42.65185216 0.02570224 48.41349828 0.03693688 C56.74393224 0.05316985 65.07434429 0.05839762 73.40479235 0.06091286 C86.91937843 0.06529343 100.4339404 0.07861234 113.94851339 0.09751809 C127.07904601 0.11586753 140.2095721 0.13002861 153.34011495 0.13853371 C154.14906531 0.13905916 154.95801566 0.13958461 155.79147966 0.14012598 C159.84962166 0.14273599 163.90776371 0.14526342 167.96590579 0.14774978 C201.64860236 0.16849356 235.33126977 0.20372892 269.01394308 0.24839699 C269.34394308 1.23839699 269.67394308 2.22839699 270.01394308 3.24839699 C269.02394308 3.24839699 268.03394308 3.24839699 267.01394308 3.24839699 C267.01394308 2.58839699 267.01394308 1.92839699 267.01394308 1.24839699 C232.88932839 1.35294759 198.76473489 1.46271161 164.64015997 1.57951393 C160.6157473 1.59328429 156.59133449 1.60701127 152.56692159 1.62071145 C151.36508792 1.6248039 151.36508792 1.6248039 150.13897478 1.62897903 C137.14840673 1.67311067 124.15782992 1.71372475 111.16724653 1.7530496 C97.84777209 1.79344797 84.52831396 1.83760151 71.20886356 1.88527554 C62.98334281 1.91459758 54.75782335 1.94095487 46.53228139 1.96357597 C40.89948702 1.97934671 35.26671263 1.99874939 29.63394041 2.02106541 C26.379213 2.033851 23.12450378 2.044444 19.86975896 2.05181611 C16.34930928 2.06004054 12.82893624 2.0743066 9.308514 2.09017861 C7.74872205 2.09164577 7.74872205 2.09164577 6.15741915 2.09314257 C5.22187808 2.09861701 4.28633702 2.10409146 3.32244623 2.10973179 C2.10183523 2.11371886 2.10183523 2.11371886 0.85656542 2.11778647 C-1.0034693 2.04736247 -1.0034693 2.04736247 -1.98605692 3.24839699 C-2.10887645 4.87418917 -2.16388196 6.50516703 -2.19137919 8.13535988 C-2.21132441 9.17636345 -2.23126963 10.21736702 -2.25181925 11.28991616 C-2.26853175 12.4221914 -2.28524424 13.55446663 -2.30246317 14.72105324 C-2.32324427 15.87383263 -2.34402537 17.02661202 -2.3654362 18.21432412 C-2.43105656 21.91311856 -2.48987448 25.61198659 -2.54855692 29.31089699 C-2.59173028 31.81155578 -2.63534416 34.31220701 -2.6794163 36.81285012 C-2.7867506 42.95795361 -2.88849335 49.10313103 -2.98605692 55.24839699 C-3.31605692 55.24839699 -3.64605692 55.24839699 -3.98605692 55.24839699 C-4.03663657 47.73703291 -4.0717395 40.2257125 -4.09592021 32.71421731 C-4.10599731 30.15723447 -4.11965918 27.6002632 -4.13693583 25.04331887 C-4.1611091 21.37467007 -4.17252278 17.7061732 -4.18136942 14.03745949 C-4.19169199 12.88847176 -4.20201457 11.73948403 -4.21264994 10.55567849 C-4.212801 9.4947297 -4.21295207 8.4337809 -4.21310771 7.34068215 C-4.21754893 6.40358407 -4.22199015 5.46648598 -4.22656596 4.50099099 C-3.90681329 1.50620557 -3.04445191 0.38077091 0 0 Z " fill="#1D0D00" transform="translate(116.98605692386627,129.7516030073166)"/>
<path d="M0 0 C4.75 0.875 4.75 0.875 7 2 C8.44338047 2.09776276 9.89116734 2.13382912 11.33784676 2.1386652 C12.25447849 2.14413964 13.17111023 2.14961409 14.11551869 2.15525442 C15.12912146 2.15623253 16.14272423 2.15721064 17.18704224 2.15821838 C18.79444159 2.16562535 18.79444159 2.16562535 20.43431365 2.17318195 C24.04881815 2.18862092 27.66330479 2.19693484 31.27783203 2.20532227 C33.85937662 2.21489576 36.44091961 2.22490552 39.02246094 2.23532104 C44.59256367 2.25710208 50.1626688 2.2752406 55.7327919 2.29092598 C63.78631772 2.31360981 71.83981711 2.34175468 79.89332055 2.37124526 C92.95865387 2.41893942 106.02399797 2.46219865 119.08935547 2.50268555 C131.78337443 2.5420312 144.4773838 2.58345518 157.17138672 2.62768555 C158.34448781 2.63177196 158.34448781 2.63177196 159.54128791 2.63594092 C163.46457343 2.64962024 167.38785881 2.66334055 171.31114411 2.67708123 C203.87407629 2.79107466 236.43702839 2.89787767 269 3 C269 3.33 269 3.66 269 4 C235.30867515 4.09150917 201.61738117 4.16201511 167.92595969 4.20426132 C163.95047683 4.20926428 159.97499421 4.21444156 155.99951172 4.21972656 C155.20804805 4.2207758 154.41658437 4.22182505 153.60113695 4.22290608 C140.77744598 4.24032233 127.95382656 4.27186671 115.13017806 4.30861118 C101.97681887 4.34598671 88.82349722 4.36822867 75.6700871 4.37635398 C67.55042792 4.38184881 59.43097098 4.39921799 51.31137404 4.43166587 C45.09048168 4.45526319 38.86974425 4.45782842 32.64881325 4.45243073 C30.09296483 4.45353461 27.53710902 4.46153651 24.98130608 4.4768219 C21.50106572 4.49662168 18.02170205 4.49197507 14.54144287 4.48101807 C13.01226797 4.49849512 13.01226797 4.49849512 11.45220065 4.51632524 C4.59947496 4.45770796 4.59947496 4.45770796 1.34115982 1.96993637 C0.89857708 1.31985737 0.45599434 0.66977837 0 0 Z " fill="#F5CF79" transform="translate(108,345)"/>
<path d="M0 0 C0.33 0 0.66 0 1 0 C1.55353075 11.70615034 1.55353075 11.70615034 -2 16 C-1.67 16.33 -1.34 16.66 -1 17 C-0.92794489 18.68608966 -0.91613932 20.37500659 -0.9375 22.0625 C-0.94652344 22.98160156 -0.95554688 23.90070313 -0.96484375 24.84765625 C-0.97644531 25.55792969 -0.98804688 26.26820313 -1 27 C-1.33 27 -1.66 27 -2 27 C-2 24.03 -2 21.06 -2 18 C-3.093125 18.495 -4.18625 18.99 -5.3125 19.5 C-10.51039007 21.43302318 -15.51623749 21.75519734 -21 21 C-24.125 19.4375 -24.125 19.4375 -26 17 C-26.33 14.69 -26.66 12.38 -27 10 C-18.09 10 -9.18 10 0 10 C0 6.7 0 3.4 0 0 Z " fill="#EBC266" transform="translate(253,262)"/>
<path d="M0 0 C7.6875 0.7578125 7.6875 0.7578125 10.5 2.9375 C12 5 12 5 12 7 C10.68 6.34 9.36 5.68 8 5 C8 4.34 8 3.68 8 3 C6.35 3 4.7 3 3 3 C1.83561733 6.68338759 1.88799942 10.14289456 1.90666199 13.98820496 C1.90862983 14.69172712 1.91059766 15.39524929 1.91262513 16.12009031 C1.92034405 18.47748392 1.93520994 20.83477931 1.94995117 23.19213867 C1.95678182 24.88253594 1.96311204 26.57293529 1.96897888 28.26333618 C1.9823109 31.90448241 1.99845117 35.54560184 2.01653099 39.18672752 C2.04437251 44.94855092 2.06137607 50.71037398 2.07600403 56.47224426 C2.08114802 58.44576934 2.08630464 60.41929439 2.09147358 62.3928194 C2.09405914 63.38117838 2.0966447 64.36953735 2.09930861 65.38784659 C2.13533903 78.80102905 2.18066969 92.21412834 2.24682617 105.62719727 C2.29136922 114.67585023 2.32159469 123.72443052 2.33568364 132.77318364 C2.34374581 137.55951449 2.35921064 142.34556766 2.39235497 147.13179588 C2.42349803 151.63719199 2.43587626 156.14225498 2.43413734 160.64775467 C2.43682454 162.29687552 2.44633828 163.94600231 2.46336365 165.59503746 C2.54866927 174.23567418 2.41601988 181.28206783 -2 189 C-2.66 188.67 -3.32 188.34 -4 188 C-3.51322375 187.00408561 -3.02644751 186.00817122 -2.52492046 184.9820776 C-0.86846308 181.09492308 -0.57156166 177.47822663 -0.60127258 173.28675842 C-0.59130234 172.1691025 -0.59130234 172.1691025 -0.58113068 171.02886766 C-0.56257923 168.54913284 -0.5651006 166.06988388 -0.56762695 163.59008789 C-0.55860498 161.80581993 -0.54827669 160.02155818 -0.53674316 158.23730469 C-0.5091982 153.40521224 -0.49989203 148.57323748 -0.49388909 143.74107671 C-0.48449894 138.68682915 -0.458295 133.63266926 -0.43388367 128.57847595 C-0.39023268 119.01287371 -0.36167708 109.44728851 -0.33856028 99.88161701 C-0.31150114 88.98922931 -0.26759004 78.09692987 -0.22227156 67.20460522 C-0.12944533 44.80311802 -0.05775529 22.40160314 0 0 Z " fill="#F9BF3A" transform="translate(383,158)"/>
<path d="M0 0 C2.64 1.32 5.28 2.64 8 4 C8 16.21 8 28.42 8 41 C6.02 41.99 4.04 42.98 2 44 C1.67 46.31 1.34 48.62 1 51 C9.58 51 18.16 51 27 51 C26.505 47.535 26.505 47.535 26 44 C25.01 43.34 24.02 42.68 23 42 C24.65 42.33 26.3 42.66 28 43 C28.02689216 44.47906892 28.04634621 45.95827483 28.0625 47.4375 C28.07410156 48.26121094 28.08570313 49.08492188 28.09765625 49.93359375 C28 52 28 52 27 53 C23.97022196 53.08871273 20.96332978 53.1151935 17.93359375 53.09765625 C17.02497086 53.0962413 16.11634796 53.09482635 15.18019104 53.09336853 C12.26592779 53.08775193 9.35174019 53.07519665 6.4375 53.0625 C4.46679798 53.05748714 2.49609476 53.05292386 0.52539062 53.04882812 C-4.31643559 53.03777711 -9.15820495 53.02050138 -14 53 C-14.33 52.34 -14.66 51.68 -15 51 C-10.71 51 -6.42 51 -2 51 C-1.34 48.03 -0.68 45.06 0 42 C2.97 41.505 2.97 41.505 6 41 C6 29.12 6 17.24 6 5 C4.02 4.01 2.04 3.02 0 2 C0 1.34 0 0.68 0 0 Z " fill="#F1CC7C" transform="translate(341,240)"/>
<path d="M0 0 C3.96 0 7.92 0 12 0 C12 20.13 12 40.26 12 61 C8.04 61 4.08 61 0 61 C0 40.87 0 20.74 0 0 Z M1 1 C1 20.47 1 39.94 1 60 C3.64 60 6.28 60 9 60 C10.73054609 58.26945391 10.16964628 55.92196747 10.20532227 53.56225586 C10.22526749 52.40112778 10.24521271 51.23999969 10.26576233 50.04368591 C10.28247482 48.780168 10.29918732 47.51665009 10.31640625 46.21484375 C10.33718735 44.92888809 10.35796844 43.64293243 10.37937927 42.31800842 C10.43466176 38.89364096 10.48404361 35.4692125 10.53222656 32.04473877 C10.58239665 28.55255686 10.6381061 25.0604639 10.69335938 21.56835938 C10.8010164 14.71231667 10.90244449 7.85619367 11 1 C7.7 1 4.4 1 1 1 Z " fill="#281A0A" transform="translate(192,230)"/>
<path d="M0 0 C0.33 0 0.66 0 1 0 C1.17716676 22.50450572 1.34284705 45.00906974 1.49477577 67.51376057 C1.56558474 77.96259124 1.64018157 88.41136944 1.72363281 98.86010742 C1.7963419 107.96503933 1.862008 117.06998982 1.91914403 126.17503327 C1.94965738 130.99805178 1.9837466 135.82098631 2.02626419 140.64391518 C2.06614479 145.18032592 2.09663169 149.71670136 2.11981392 154.25322723 C2.13001067 155.92098936 2.14368352 157.58873428 2.16103554 159.2564373 C2.18416001 161.52817825 2.19493613 163.79964939 2.20254517 166.07148743 C2.2117631 167.34448354 2.22098103 168.61747965 2.23047829 169.9290514 C2 173 2 173 0 176 C-0.66 176 -1.32 176 -2 176 C-1.83826325 175.32129506 -1.67652651 174.64259012 -1.50988865 173.94331837 C-0.92217776 170.55077323 -0.85947042 167.35116979 -0.84178162 163.90690613 C-0.83684364 163.20434655 -0.83190566 162.50178697 -0.82681805 161.77793771 C-0.81149393 159.43032992 -0.80309628 157.08274937 -0.79467773 154.73510742 C-0.78509521 153.04965985 -0.77508491 151.36421466 -0.76467896 149.67877197 C-0.73766442 145.10691508 -0.71663617 140.53504791 -0.69667697 135.96315551 C-0.67479613 131.18385813 -0.6474177 126.40459233 -0.62062073 121.62532043 C-0.57072222 112.57672459 -0.52577284 103.52811119 -0.48259836 94.47948104 C-0.4332017 84.17724279 -0.37829258 73.87503624 -0.32291877 63.57282865 C-0.20914236 42.3819153 -0.10229386 21.19097169 0 0 Z " fill="#110100" transform="translate(397,167)"/>
<path d="M0 0 C2 1 2 1 2.77783203 2.81005859 C3.01872559 3.58172363 3.25961914 4.35338867 3.5078125 5.1484375 C3.77207031 5.98890625 4.03632813 6.829375 4.30859375 7.6953125 C4.57800781 8.57960937 4.84742188 9.46390625 5.125 10.375 C5.40214844 11.2515625 5.67929687 12.128125 5.96484375 13.03125 C8 19.58786176 8 19.58786176 8 23 C3.38 23 -1.24 23 -6 23 C-5.38334864 17.60607261 -4.12077204 12.71604717 -2.4375 7.5625 C-2.20353516 6.83095703 -1.96957031 6.09941406 -1.72851562 5.34570312 C-1.15732778 3.56219821 -0.57936877 1.78086417 0 0 Z " fill="#F0C66C" transform="translate(311,244)"/>
<path d="M0 0 C2 2 2 2 2.375 4.9375 C2 8 2 8 0.4375 9.9375 C-3.02409525 11.44640049 -5.38547801 10.8701627 -9 10 C-11 8 -11 8 -11.375 5.0625 C-11 2 -11 2 -9.4375 0.0625 C-5.97590475 -1.44640049 -3.61452199 -0.8701627 0 0 Z " fill="#150C05" transform="translate(178,231)"/>
<path d="M0 0 C2.875 2.25 2.875 2.25 5 5 C5 6.32 5 7.64 5 9 C-0.28 9 -5.56 9 -11 9 C-10 3 -10 3 -8.3125 1.125 C-5.21507874 -0.38185358 -3.40864082 -0.55651279 0 0 Z " fill="#F0C86E" transform="translate(237,255)"/>
<path d="M0 0 C3.96 0 7.92 0 12 0 C12 14.52 12 29.04 12 44 C8.04 44 4.08 44 0 44 C0 29.48 0 14.96 0 0 Z M1 1 C0.97529531 6.49926424 0.95713777 11.99849622 0.94506836 17.49780273 C0.94003721 19.36890221 0.93321165 21.23999775 0.92456055 23.11108398 C0.91244171 25.79932628 0.90675953 28.48751664 0.90234375 31.17578125 C0.89718246 32.01337479 0.89202118 32.85096832 0.88670349 33.71394348 C0.88637936 37.06375742 0.93315485 39.79946456 2 43 C6.00254456 43.09181134 6.00254456 43.09181134 10 43 C12.09441119 40.90558881 11.16414502 36.33334318 11.16796875 33.44140625 C11.17296135 32.15217506 11.17296135 32.15217506 11.17805481 30.8368988 C11.1831277 29.01521339 11.18546302 27.19351864 11.18530273 25.37182617 C11.18748803 22.5778071 11.20563644 19.78418343 11.22460938 16.99023438 C11.2275434 15.22395969 11.22952814 13.45768312 11.23046875 11.69140625 C11.23765427 10.85178848 11.24483978 10.01217072 11.25224304 9.14710999 C11.43912131 4.5975724 11.43912131 4.5975724 9 1 C6.31160615 0.73008094 3.70858064 0.91262643 1 1 Z " fill="#2F1B02" transform="translate(167,247)"/>
<path d="M0 0 C0 0.66 0 1.32 0 2 C-31.68 1.67 -63.36 1.34 -96 1 C-96 0.67 -96 0.34 -96 0 C-84.07384373 -0.15379476 -72.14763225 -0.30197618 -60.22131729 -0.4429636 C-54.68363879 -0.5086045 -49.14599814 -0.57618906 -43.60839844 -0.64819336 C-38.26573143 -0.71759184 -32.92302535 -0.78191377 -27.5802536 -0.84269524 C-25.54046148 -0.866797 -23.50069024 -0.89273735 -21.46094513 -0.92053413 C-18.60713465 -0.95911261 -15.75332033 -0.9911921 -12.89941406 -1.02172852 C-12.05352722 -1.03467453 -11.20764038 -1.04762054 -10.33612061 -1.06095886 C-6.70973046 -1.09370374 -3.48824248 -0.98546308 0 0 Z " fill="#200D00" transform="translate(212,83)"/>
<path d="M0 0 C4.29 0 8.58 0 13 0 C13 2.31 13 4.62 13 7 C8.71 7 4.42 7 0 7 C0 4.69 0 2.38 0 0 Z " fill="#8EE5F9" transform="translate(365,140)"/>
<path d="M0 0 C1.17108559 -0.00065712 1.17108559 -0.00065712 2.36582947 -0.00132751 C4.94702135 0.00076293 7.52756413 0.02410557 10.10864258 0.04760742 C11.89797104 0.05320248 13.6873041 0.057473 15.47663879 0.06047058 C20.18676435 0.07192649 24.89661249 0.10140006 29.60662842 0.13458252 C34.41260017 0.16526734 39.21861673 0.17897252 44.0246582 0.1940918 C53.45511864 0.22626907 62.88537317 0.27747443 72.31567383 0.34057617 C72.31567383 0.67057617 72.31567383 1.00057617 72.31567383 1.34057617 C70.8665435 1.35603737 70.8665435 1.35603737 69.38813782 1.37181091 C60.28034041 1.46959911 51.17261049 1.57233828 42.06492329 1.67991543 C37.38266117 1.73506196 32.70039272 1.78846862 28.01806641 1.83789062 C23.49874218 1.8856563 18.97949204 1.93800329 14.46025658 1.99351692 C12.7367252 2.01388525 11.01317356 2.0326073 9.28960609 2.04965019 C6.87414865 2.07381676 4.45882979 2.10385411 2.04345703 2.13525391 C1.33207581 2.14100937 0.62069458 2.14676483 -0.11224365 2.1526947 C-3.75292395 2.2064329 -7.14163562 2.4849135 -10.68432617 3.34057617 C-7.97418154 -0.5894154 -4.33436709 -0.06340897 0 0 Z " fill="#F8CE75" transform="translate(295.684326171875,157.659423828125)"/>
<path d="M0 0 C6.6 0 13.2 0 20 0 C20 0.33 20 0.66 20 1 C13.73 1 7.46 1 1 1 C1.33 4.63 1.66 8.26 2 12 C3.71509766 12.07347656 3.71509766 12.07347656 5.46484375 12.1484375 C6.95575473 12.22345189 8.44663892 12.29900028 9.9375 12.375 C11.06961914 12.42140625 11.06961914 12.42140625 12.22460938 12.46875 C14.15507395 12.5726315 16.07942081 12.77895614 18 13 C18.33 13.66 18.66 14.32 19 15 C12.73 15 6.46 15 0 15 C0 10.05 0 5.1 0 0 Z " fill="#CFAF68" transform="translate(136,244)"/>
<path d="M0 0 C0.66 0.66 1.32 1.32 2 2 C-0.31 8.6 -2.62 15.2 -5 22 C-0.71 22.33 3.58 22.66 8 23 C8.33 22.34 8.66 21.68 9 21 C8.67 22.32 8.34 23.64 8 25 C5.87506859 25.02693575 3.75004088 25.04636628 1.625 25.0625 C0.44164062 25.07410156 -0.74171875 25.08570313 -1.9609375 25.09765625 C-5 25 -5 25 -7 24 C-6.32378453 18.72551932 -4.73786174 13.99329288 -3 9 C-2.43520043 7.31326826 -1.87261034 5.62579467 -1.3125 3.9375 C-0.875 2.625 -0.4375 1.3125 0 0 Z " fill="#ECC977" transform="translate(290,268)"/>
<path d="M0 0 C6.93 0 13.86 0 21 0 C24.375 9 24.375 9 25 14 C24.34 14 23.68 14 23 14 C22.34 10.37 21.68 6.74 21 3 C14.73 3 8.46 3 2 3 C1.67 3.66 1.34 4.32 1 5 C0.34 5 -0.32 5 -1 5 C-0.67 3.35 -0.34 1.7 0 0 Z " fill="#CDAD67" transform="translate(301,277)"/>
<path d="M0 0 C0.66 0.66 1.32 1.32 2 2 C1.01 2.61875 0.02 3.2375 -1 3.875 C-1.99 4.57625 -2.98 5.2775 -4 6 C-4 6.66 -4 7.32 -4 8 C3.59 8.33 11.18 8.66 19 9 C19 7.35 19 5.7 19 4 C17.68 3.67 16.36 3.34 15 3 C15.33 2.34 15.66 1.68 16 1 C17.32 1.66 18.64 2.32 20 3 C20 5.31 20 7.62 20 10 C11.42 10 2.84 10 -6 10 C-6 7.69 -6 5.38 -6 3 C-4.02 2.01 -2.04 1.02 0 0 Z " fill="#190802" transform="translate(348,281)"/>
<path d="M0 0 C0.66 0 1.32 0 2 0 C6.25587582 6.04032769 6.50835609 10.66875086 6.25 17.9375 C6.23195313 18.90751953 6.21390625 19.87753906 6.1953125 20.87695312 C6.14850667 23.25234894 6.08296385 25.62563844 6 28 C3.525 27.01 3.525 27.01 1 26 C1.99 25.67 2.98 25.34 4 25 C3.91890252 21.91560757 3.80608311 18.83316088 3.6875 15.75 C3.66494141 14.87730469 3.64238281 14.00460938 3.61914062 13.10546875 C3.38832775 6.98255529 3.38832775 6.98255529 0 2 C0 1.34 0 0.68 0 0 Z " fill="#C68C41" transform="translate(391,124)"/>
<path d="M0 0 C0 0.99 0 1.98 0 3 C2.475 3.495 2.475 3.495 5 4 C5 4.33 5 4.66 5 5 C2.36 5 -0.28 5 -3 5 C-3.33 5.66 -3.66 6.32 -4 7 C-4.66 5.35 -5.32 3.7 -6 2 C-11.28 1.67 -16.56 1.34 -22 1 C-22 0.67 -22 0.34 -22 0 C-19.64628886 -0.1968999 -17.2925305 -0.38270974 -14.9375 -0.5625 C-13.62652344 -0.66691406 -12.31554687 -0.77132812 -10.96484375 -0.87890625 C-7.07674103 -0.99765619 -3.80889777 -0.66866216 0 0 Z " fill="#B8E1E8" transform="translate(144,147)"/>
<path d="M0 0 C0 3.10551666 -0.5393715 4.35261084 -2 7 C-2.66 7 -3.32 7 -4 7 C-4.185625 7.556875 -4.37125 8.11375 -4.5625 8.6875 C-6.66360714 12.06754192 -9.70665994 13.85140381 -13 16 C-13.66 15.67 -14.32 15.34 -15 15 C-10.05 10.05 -5.1 5.1 0 0 Z " fill="#E8C36E" transform="translate(272,173)"/>
<path d="M0 0 C0 2.97 0 5.94 0 9 C-7.21723656 11.88689463 -13.26112111 12.35355284 -21 12 C-21 11.67 -21 11.34 -21 11 C-20.28714844 10.96261719 -19.57429687 10.92523438 -18.83984375 10.88671875 C-12.96500828 10.48346625 -8.10682672 10.04236485 -3 7 C-1.49547543 4.45631001 -1.49547543 4.45631001 -1 2 C-2.32 1.67 -3.64 1.34 -5 1 C-2 0 -2 0 0 0 Z " fill="#2D1A0A" transform="translate(251,280)"/>
<path d="M0 0 C0.33 0 0.66 0 1 0 C1.02505615 1.01425049 1.0501123 2.02850098 1.07592773 3.07348633 C1.17009645 6.83631027 1.27029405 10.59895369 1.37231445 14.36157227 C1.41562749 15.99011004 1.45730518 17.61869216 1.49731445 19.24731445 C1.55510503 21.58818935 1.61877398 23.92884176 1.68359375 26.26953125 C1.70030624 26.99775589 1.71701874 27.72598053 1.73423767 28.47627258 C1.82467238 31.56166939 2.01723993 34.05171978 3 37 C2.01 37 1.02 37 0 37 C0 24.79 0 12.58 0 0 Z " fill="#D7BD7B" transform="translate(361,244)"/>
<path d="M0 0 C0.99 0.33 1.98 0.66 3 1 C3.04898437 2.13179687 3.09796875 3.26359375 3.1484375 4.4296875 C3.22346514 5.91148339 3.29901297 7.393253 3.375 8.875 C3.4059375 9.62136719 3.436875 10.36773437 3.46875 11.13671875 C3.55643831 15.53473188 3.55643831 15.53473188 6 19 C4.35 18.67 2.7 18.34 1 18 C0.67 12.06 0.34 6.12 0 0 Z " fill="#BD853D" transform="translate(386,130)"/>
<path d="M0 0 C0.99 0.33 1.98 0.66 3 1 C2.67 1.99 2.34 2.98 2 4 C1.84820986 6.3555448 1.75100711 8.71475123 1.68359375 11.07421875 C1.66281265 11.7580513 1.64203156 12.44188385 1.62062073 13.1464386 C1.55533846 15.3266921 1.49633983 17.50706405 1.4375 19.6875 C1.39429447 21.16732986 1.35067953 22.64714783 1.30664062 24.12695312 C1.19967917 27.75117622 1.09835177 31.37553189 1 35 C0.67 35 0.34 35 0 35 C0 23.45 0 11.9 0 0 Z " fill="#F5CD72" transform="translate(362,243)"/>
<path d="M0 0 C1.98 0.66 3.96 1.32 6 2 C7.15316726 8.34241995 7.09507063 14.56688704 7 21 C6.67 21 6.34 21 6 21 C5.89042969 20.13117188 5.78085938 19.26234375 5.66796875 18.3671875 C4.53150728 9.77305627 4.53150728 9.77305627 1 2 C0.67 1.34 0.34 0.68 0 0 Z " fill="#EFC874" transform="translate(248,251)"/>
<path d="M0 0 C1.10555457 3.4579752 0.98902656 6.39968291 0.6875 10 C0.60886719 11.03125 0.53023437 12.0625 0.44921875 13.125 C0.02470595 15.84188191 -0.61589077 17.64983902 -2 20 C-2.33 20 -2.66 20 -3 20 C-3.3689719 12.68889006 -2.81552726 6.78743178 0 0 Z " fill="#F8CD72" transform="translate(213,260)"/>
<path d="M0 0 C0 0.66 0 1.32 0 2 C-0.66 2 -1.32 2 -2 2 C-2.268125 2.61875 -2.53625 3.2375 -2.8125 3.875 C-4 6 -4 6 -7 8 C-8.19232613 10.05003955 -8.19232613 10.05003955 -9 12 C-9.8125 10.375 -9.8125 10.375 -10 8 C-4.24 0 -4.24 0 0 0 Z " fill="#DABC66" transform="translate(114,194)"/>
<path d="M0 0 C1.98 0.99 3.96 1.98 6 3 C6 3.99 6 4.98 6 6 C5.34 6 4.68 6 4 6 C3.67 6.99 3.34 7.98 3 9 C2.34 9 1.68 9 1 9 C0 6 0 6 1 3 C0.67 2.01 0.34 1.02 0 0 Z " fill="#F5CB6D" transform="translate(220,287)"/>
<path d="M0 0 C1.4540625 0.0309375 1.4540625 0.0309375 2.9375 0.0625 C3.2675 2.7025 3.5975 5.3425 3.9375 8.0625 C2.9475 7.7325 1.9575 7.4025 0.9375 7.0625 C0.793125 6.423125 0.64875 5.78375 0.5 5.125 C0.13645007 2.85938294 0.13645007 2.85938294 -2.125 1.8125 C-2.764375 1.565 -3.40375 1.3175 -4.0625 1.0625 C-3.0625 0.0625 -3.0625 0.0625 0 0 Z " fill="#F0C86F" transform="translate(164.0625,231.9375)"/>
<path d="M0 0 C6.36363636 -0.48951049 6.36363636 -0.48951049 9.4375 1.875 C11 4 11 4 11 6 C9.68 5.34 8.36 4.68 7 4 C7 3.34 7 2.68 7 2 C5.35 2 3.7 2 2 2 C1.34 3.32 0.68 4.64 0 6 C0 4.02 0 2.04 0 0 Z " fill="#E7B13A" transform="translate(384,159)"/>
<path d="M0 0 C0.66 0 1.32 0 2 0 C2 1.32 2 2.64 2 4 C2.66 4.33 3.32 4.66 4 5 C3.34 5 2.68 5 2 5 C2.66 6.32 3.32 7.64 4 9 C2.68 9.33 1.36 9.66 0 10 C0 6.7 0 3.4 0 0 Z " fill="#F4D07A" transform="translate(157,234)"/>
<path d="M0 0 C0.66 0 1.32 0 2 0 C2.27714844 0.62648438 2.55429687 1.25296875 2.83984375 1.8984375 C3.20207031 2.71570313 3.56429688 3.53296875 3.9375 4.375 C4.29714844 5.18710937 4.65679687 5.99921875 5.02734375 6.8359375 C5.6569903 8.23683785 6.31312642 9.62625284 7 11 C6.01 12.485 6.01 12.485 5 14 C3.35 9.38 1.7 4.76 0 0 Z " fill="#EAC472" transform="translate(333,273)"/>
<path d="M0 0 C0.74958984 0.01353516 1.49917969 0.02707031 2.27148438 0.04101562 C4.11879767 0.07631461 5.96574066 0.13012083 7.8125 0.1875 C7.8125 0.5175 7.8125 0.8475 7.8125 1.1875 C6.85988281 1.24808594 5.90726562 1.30867187 4.92578125 1.37109375 C3.67152344 1.45488281 2.41726563 1.53867188 1.125 1.625 C-0.11636719 1.70621094 -1.35773438 1.78742188 -2.63671875 1.87109375 C-5.56930337 2.13241317 -8.32191617 2.53548379 -11.1875 3.1875 C-8.45797954 -0.92296361 -4.41882331 -0.15051014 0 0 Z " fill="#E9C470" transform="translate(296.1875,157.8125)"/>
<path d="M0 0 C0 3.21518097 -0.1621112 4.41024759 -2 7 C-5.125 8.25 -5.125 8.25 -8 9 C-7.04270084 7.87411986 -6.08412105 6.7493285 -5.125 5.625 C-4.59132813 4.99851563 -4.05765625 4.37203125 -3.5078125 3.7265625 C-2.38567993 2.44163349 -1.20628025 1.20628025 0 0 Z " fill="#DDBD70" transform="translate(272,173)"/>
<path d="M0 0 C0.66 0.33 1.32 0.66 2 1 C2.625 3.5625 2.625 3.5625 3 6 C1.35 6.66 -0.3 7.32 -2 8 C-1.34 5.36 -0.68 2.72 0 0 Z " fill="#CFB269" transform="translate(311,244)"/>
<path d="M0 0 C0.66 0.33 1.32 0.66 2 1 C1.01 3.97 0.02 6.94 -1 10 C-1.66 10 -2.32 10 -3 10 C-2.39009109 6.44219804 -1.4216319 3.3171411 0 0 Z " fill="#EAC674" transform="translate(298,246)"/>
<path d="M0 0 C0.99 0.33 1.98 0.66 3 1 C3 1.66 3 2.32 3 3 C3.66 3.33 4.32 3.66 5 4 C2.36 4 -0.28 4 -3 4 C-2.01 2.68 -1.02 1.36 0 0 Z " fill="#FDCC66" transform="translate(230,259)"/>
<path d="M0 0 C3.26460973 1.80412643 4.88929795 2.83394693 7 6 C5.35 6 3.7 6 2 6 C2 5.01 2 4.02 2 3 C1.34 3 0.68 3 0 3 C0 2.01 0 1.02 0 0 Z " fill="#211105" transform="translate(243,248)"/>
<path d="M0 0 C0.66 0.33 1.32 0.66 2 1 C-0.6234008 3.91488977 -3.71816394 5.88503898 -7 8 C-5.50902342 4.2047869 -3.24299151 2.38957269 0 0 Z " fill="#281606" transform="translate(224,248)"/>
<path d="M0 0 C0.66 1.32 1.32 2.64 2 4 C0.68 5.65 -0.64 7.3 -2 9 C-2 7.02 -2 5.04 -2 3 C-1.34 3 -0.68 3 0 3 C0 2.01 0 1.02 0 0 Z " fill="#E4B536" transform="translate(394,337)"/>
<path d="M0 0 C0.66 0 1.32 0 2 0 C1.67 1.65 1.34 3.3 1 5 C0.34 5 -0.32 5 -1 5 C-0.67 3.35 -0.34 1.7 0 0 Z M-2 5 C-2 8 -2 8 -2 8 Z " fill="#FACF69" transform="translate(312,250)"/>
<path d="" fill="#FFFFFF" transform="translate(0,0)"/>
<path d="" fill="#FFFFFF" transform="translate(0,0)"/>
<path d="" fill="#FFFFFF" transform="translate(0,0)"/>
<path d="" fill="#FFFFFF" transform="translate(0,0)"/>
<path d="" fill="#FFFFFF" transform="translate(0,0)"/>
<path d="" fill="#FFFFFF" transform="translate(0,0)"/>
<path d="" fill="#FFFFFF" transform="translate(0,0)"/>
<path d="" fill="#FFFFFF" transform="translate(0,0)"/>
<path d="" fill="#FFFFFF" transform="translate(0,0)"/>
<path d="" fill="#FFFFFF" transform="translate(0,0)"/>
<path d="" fill="#FFFFFF" transform="translate(0,0)"/>
<path d="" fill="#FFFFFF" transform="translate(0,0)"/>
<path d="" fill="#FFFFFF" transform="translate(0,0)"/>
<path d="" fill="#FFFFFF" transform="translate(0,0)"/>
<path d="" fill="#FFFFFF" transform="translate(0,0)"/>
<path d="" fill="#FFFFFF" transform="translate(0,0)"/>
<path d="" fill="#FFFFFF" transform="translate(0,0)"/>
<path d="" fill="#FFFFFF" transform="translate(0,0)"/>
<path d="" fill="#FFFFFF" transform="translate(0,0)"/>
<path d="" fill="#FFFFFF" transform="translate(0,0)"/>
<path d="" fill="#FFFFFF" transform="translate(0,0)"/>
<path d="" fill="#FFFFFF" transform="translate(0,0)"/>
<path d="" fill="#FFFFFF" transform="translate(0,0)"/>
<path d="" fill="#FFFFFF" transform="translate(0,0)"/>
<path d="" fill="#FFFFFF" transform="translate(0,0)"/>
<path d="" fill="#FFFFFF" transform="translate(0,0)"/>
<path d="" fill="#FFFFFF" transform="translate(0,0)"/>
<path d="" fill="#FFFFFF" transform="translate(0,0)"/>
<path d="" fill="#FFFFFF" transform="translate(0,0)"/>
<path d="" fill="#FFFFFF" transform="translate(0,0)"/>
<path d="" fill="#FFFFFF" transform="translate(0,0)"/>
<path d="" fill="#FFFFFF" transform="translate(0,0)"/>
<path d="" fill="#FFFFFF" transform="translate(0,0)"/>
<path d="" fill="#FFFFFF" transform="translate(0,0)"/>
<path d="" fill="#FFFFFF" transform="translate(0,0)"/>
<path d="" fill="#FFFFFF" transform="translate(0,0)"/>
<path d="" fill="#FFFFFF" transform="translate(0,0)"/>
<path d="" fill="#FFFFFF" transform="translate(0,0)"/>
<path d="" fill="#FFFFFF" transform="translate(0,0)"/>
<path d="" fill="#FFFFFF" transform="translate(0,0)"/>
<path d="" fill="#FFFFFF" transform="translate(0,0)"/>
<path d="" fill="#FFFFFF" transform="translate(0,0)"/>
<path d="" fill="#FFFFFF" transform="translate(0,0)"/>
<path d="" fill="#FFFFFF" transform="translate(0,0)"/>
<path d="" fill="#FFFFFF" transform="translate(0,0)"/>
<path d="" fill="#FFFFFF" transform="translate(0,0)"/>
<path d="" fill="#FFFFFF" transform="translate(0,0)"/>
<path d="" fill="#FFFFFF" transform="translate(0,0)"/>
<path d="" fill="#FFFFFF" transform="translate(0,0)"/>
<path d="" fill="#FFFFFF" transform="translate(0,0)"/>
<path d="" fill="#FFFFFF" transform="translate(0,0)"/>
<path d="" fill="#FFFFFF" transform="translate(0,0)"/>
<path d="" fill="#FFFFFF" transform="translate(0,0)"/>
<path d="" fill="#FFFFFF" transform="translate(0,0)"/>
<path d="" fill="#FFFFFF" transform="translate(0,0)"/>
<path d="" fill="#FFFFFF" transform="translate(0,0)"/>
<path d="" fill="#FFFFFF" transform="translate(0,0)"/>
<path d="" fill="#FFFFFF" transform="translate(0,0)"/>
<path d="" fill="#FFFFFF" transform="translate(0,0)"/>
<path d="" fill="#FFFFFF" transform="translate(0,0)"/>
<path d="" fill="#FFFFFF" transform="translate(0,0)"/>
<path d="" fill="#FFFFFF" transform="translate(0,0)"/>
<path d="" fill="#FFFFFF" transform="translate(0,0)"/>
</svg>
